<svg height="1065pt" viewBox="-79 -33 1065 1065.0001" width="1065pt" xmlns="http://www.w3.org/2000/svg"><path d="m539.777344 694.210938v-247.070313c-29.238282 14.503906-54.882813 34.921875-77.066406 54.207031-62.804688 54.5625-94.449219 129.003906-94.023438 221.265625.328125 70.273438 19.671875 123.761719 19.867188 124.292969l26.742187 72.8125-68.152344-37.039062c-1.761719-.957032-43.550781-23.933594-85.019531-70.972657-55.1875-62.585937-84.359375-138.839843-84.359375-220.523437 0-68.90625 15.105469-135.714844 43.679687-196.496094h-226.394531v601.730469h907.347657v-601.730469h-63.089844zm0 0"/><path d="m873.242188 278.027344-274.96875-280.046875v190.6875l-24.492188 4.042969c-85.882812 14.152343-163.453125 54.992187-224.324219 118.074218-72.984375 75.660156-113.195312 175.238282-113.195312 280.410156 0 67.460938 22.996093 128.101563 68.347656 180.246094 3.226563 3.714844 6.460937 7.246094 9.671875 10.605469-2.363281-17.878906-3.980469-37.847656-4.078125-59.175781-.503906-108.496094 38.96875-200.378906 114.136719-265.683594 33.988281-29.523438 80.273437-65.375 137.089844-80.660156l36.84375-9.914063v186.382813zm0 0"/></svg>